<svg width="95" height="85" viewBox="0 0 71 83" fill="none" xmlns="http://www.w3.org/2000/svg">
<path d="M35.2386 82.2985C34.1443 82.2985 33.1228 81.996 32.1744 81.4668L22.471 75.4938C21.0118 74.6621 21.7414 74.3597 22.1792 74.2085C24.149 73.528 24.5138 73.3768 26.5566 72.1671C26.7755 72.0159 27.0673 72.0915 27.2862 72.2427L34.7279 76.8548C35.0197 77.006 35.3845 77.006 35.6034 76.8548L64.7136 59.3895C65.0054 59.2383 65.1513 58.9358 65.1513 58.5578V23.7029C65.1513 23.3248 65.0054 23.0224 64.7136 22.8712L35.6034 5.48152C35.3116 5.33031 34.9468 5.33031 34.7279 5.48152L5.61775 22.8712C5.32592 23.0224 5.18 23.4004 5.18 23.7029V58.5578C5.18 58.8602 5.32592 59.2383 5.61775 59.3895L13.5702 64.1527C17.8747 66.421 20.5741 63.7747 20.5741 61.1284V26.7272C20.5741 26.2735 20.9389 25.8199 21.4496 25.8199H25.1704C25.6082 25.8199 26.0459 26.1979 26.0459 26.7272V61.1284C26.0459 67.1014 22.9088 70.5794 17.4369 70.5794C15.7589 70.5794 14.4456 70.5794 10.7248 68.6892L3.06423 64.1527C1.16733 63.0186 0 60.9016 0 58.6334V23.7785C0 21.5103 1.16733 19.3933 3.06423 18.2591L32.1744 0.793876C33.9983 -0.264625 36.4789 -0.264625 38.3028 0.793876L67.413 18.2591C69.3099 19.3933 70.4772 21.5103 70.4772 23.7785V58.6334C70.4772 60.9016 69.3099 63.0186 67.413 64.1527L38.3028 81.618C37.3544 82.0717 36.26 82.2985 35.2386 82.2985ZM44.2124 58.331C31.4448 58.331 28.8183 52.2824 28.8183 47.1411C28.8183 46.6875 29.1831 46.2338 29.6938 46.2338H33.4876C33.9254 46.2338 34.2902 46.5363 34.2902 46.9899C34.8738 50.9971 36.5519 52.9629 44.2854 52.9629C50.4138 52.9629 53.0403 51.5263 53.0403 48.124C53.0403 46.1582 52.3107 44.7217 42.7533 43.7388C34.8009 42.9071 29.8397 41.0925 29.8397 34.5147C29.8397 28.3905 34.8009 24.7614 43.1181 24.7614C52.4567 24.7614 57.053 28.0881 57.6367 35.3464C57.6367 35.5732 57.5637 35.8 57.4178 36.0268C57.2719 36.1781 57.053 36.3293 56.8341 36.3293H53.0403C52.6755 36.3293 52.3107 36.0268 52.2378 35.6488C51.3623 31.4904 49.1006 30.1295 43.1181 30.1295C36.4059 30.1295 35.6034 32.5489 35.6034 34.3635C35.6034 36.5561 36.5519 37.2366 45.5986 38.4463C54.5724 39.656 58.804 41.395 58.804 47.8972C58.731 54.5506 53.4781 58.331 44.2124 58.331Z" fill="#539E43"/>
</svg>
